<?xml version="1.0" encoding="utf-8"?>
<!-- Generator: Adobe Illustrator 24.3.0, SVG Export Plug-In . SVG Version: 6.00 Build 0)  -->
<svg version="1.1" id="Layer_1" xmlns="http://www.w3.org/2000/svg" xmlns:xlink="http://www.w3.org/1999/xlink" x="0px" y="0px"
	 viewBox="0 0 540 540" style="enable-background:new 0 0 540 540;" xml:space="preserve">
<style type="text/css">
	.st0{fill:url(#SVGID_1_);}
</style>
<linearGradient id="SVGID_1_" gradientUnits="userSpaceOnUse" x1="105.3996" y1="98.985" x2="511.993" y2="440.1573">
	<stop  offset="0" style="stop-color:#4DF8CE"/>
	<stop  offset="0.5297" style="stop-color:#84A1FD"/>
	<stop  offset="1" style="stop-color:#E3A5EE"/>
</linearGradient>
<path class="st0" d="M272.6,375.1c-3.1,8.2-3.1,8.2-10.5,4.8c-4.9-2.2-9.6-4.6-14.6-6.4c-4.4-1.7-7.5-3.6-4.8-9.4
	c-5.6-1.7-10.7-3.4-15.9-5c-64.4-19.7-128.8-39.3-193.1-59c-9.1-2.8-18.1-5.6-27.2-8.4c-5.2-1.6-6-3.3-3.3-8.1
	c5.3-9.4,10.8-18.7,16.2-28.1c29.4-50.9,58.8-101.7,88.2-152.6c3.7-6.3,7.7-12.5,10.9-19.1c1.8-3.6,4-4.3,7.5-3.2
	c2.8,0.9,5.4,1.5,7.2-2.1c0.5-0.9,3.2-1.3,4.8-1c20.1,3.7,40.2,7.7,60.3,11.4c18.1,3.4,36.5,5.9,54.5,9.9
	c22.2,5,43.4,12.7,61.3,27.4c4.7-4.8,12-3.4,15.7,3c0.7-0.4,1.6-1.3,2-1.1c7.1,2.8,13.6-1,20.3-2c16.5-2.4,32.8-0.8,48.5,3.8
	c37.8,11.1,75.2,23.4,112.7,35.4c5.4,1.7,8.6,5.6,10,11.4c0.5,2.1,3.4,3.6,6.2,6.3c-1.8,79.6-3,160.6-5.2,242.5
	C439.2,408.6,356,391.9,272.6,375.1z"/>
</svg>
